# xmcd
#
# Track frame offsets:
#       150
#       15798
#       31010
#       48040
#       62098
#       75715
#       87593
#       98146
#       110676
#       126352
#       140054
#       156456
#       167698
#       179956
#
# Disc length: 2524 seconds
#
# Revision: 0
# Processed by: cddbd v1.5.2PL0 Copyright (c) Steve Scherf et al.
# Submitted via: WhereIsIt 3.74
#
DISCID=ba09da0e
DTITLE=Clay County - Love Is the Source
DYEAR=2004
DGENRE=bluegrass
TTITLE0=Orphan Train
TTITLE1=One Good Song
TTITLE2=Goodbye My Darling
TTITLE3=More Pretty Girls Than One
TTITLE4=Love Is the Source
TTITLE5=Daisy's Song
TTITLE6=Beautiful Baby
TTITLE7=One Last Kiss
TTITLE8=Granny
TTITLE9=Been There, Done That
TTITLE10=You're My Never Was
TTITLE11=I'm Missing You Tonight
TTITLE12=Sunrise, Moonrise
TTITLE13=Love Is Running Out on Me
EXTD=
EXTT0=
EXTT1=
EXTT2=
EXTT3=
EXTT4=
EXTT5=
EXTT6=
EXTT7=
EXTT8=
EXTT9=
EXTT10=
EXTT11=
EXTT12=
EXTT13=
PLAYORDER=
